<?xml version="1.0" encoding="utf-8"?>
<!-- Generator: Adobe Illustrator 18.0.0, SVG Export Plug-In . SVG Version: 6.00 Build 0)  -->
<!DOCTYPE svg PUBLIC "-//W3C//DTD SVG 1.1//EN" "http://www.w3.org/Graphics/SVG/1.1/DTD/svg11.dtd">
<svg version="1.1" id="Layer_1" xmlns="http://www.w3.org/2000/svg" xmlns:xlink="http://www.w3.org/1999/xlink" x="0px" y="0px"
	 viewBox="0 0 64 64" enable-background="new 0 0 64 64" xml:space="preserve">
<g>
	<g>
		<g>
			<path fill="#56CC94" d="M32,0c17.7,0,32,14.3,32,32S49.7,64,32,64S0,49.7,0,32S14.3,0,32,0z"/>
		</g>
	</g>
	<g>
		<g>
			<path fill="#5C7A93" d="M21,22h-4c-0.6,0-1-0.4-1-1v-2c0-0.6,0.4-1,1-1h4c0.6,0,1,0.4,1,1v2C22,21.6,21.6,22,21,22z"/>
		</g>
	</g>
	<g>
		<g>
			<rect x="23" y="24" fill="#F9C646" width="28" height="21"/>
		</g>
	</g>
	<g>
		<g>
			<path fill="#FCE06B" d="M46,23H29l2.7-5.3c0.2-0.4,0.6-0.7,1.1-0.7h9.4c0.5,0,0.9,0.3,1.1,0.7L46,23z"/>
		</g>
	</g>
	<g>
		<g>
			<path fill="#F2F2F2" d="M51,26H23v-4h6.5h15.9h3.1c1.4,0,2.5,1.3,2.5,2.6V26z"/>
		</g>
	</g>
	<g>
		<g>
			<path fill="#FF6161" d="M28.5,27.5c-0.8,0-1.5-0.7-1.5-1.5c0-0.8,0.7-1.5,1.5-1.5S30,25.2,30,26C30,26.8,29.3,27.5,28.5,27.5z"/>
		</g>
	</g>
	<g>
		<g>
			<path fill="#F2F2F2" d="M22,47v-4h15.5h0H51v1.9c0,1.4-1.1,2.1-2.5,2.1H22z"/>
		</g>
	</g>
	<g>
		<g>
			<path fill="#FFFFFF" d="M34.5,25.7c1.1-0.5,2.3-0.7,3.5-0.7c1.3,0,2.4,0.3,3.5,0.7c3.2,1.4,5.5,4.6,5.5,8.3c0,5-4,9-9,9h0
				c-5,0-9-4.1-9-9C29,30.3,31.3,27.1,34.5,25.7z"/>
		</g>
	</g>
	<g>
		<g>
			<path fill="#385784" d="M31,34c0-3.9,3.1-7,7-7c3.9,0,7,3.1,7,7c0,3.9-3.1,7-7,7C34.1,41,31,37.9,31,34z"/>
		</g>
	</g>
	<g>
		<g>
			<path fill="#FFFFFF" d="M21.6,19.7h0.6c1.4,0,2.5,1.1,2.5,2.5V26H13v-3.8c0-1.3,1.1-2.5,2.4-2.5h0.6H21.6z"/>
		</g>
	</g>
	<g>
		<g>
			<path fill="#FFFFFF" d="M24.6,44.9c0,1.4-1.1,2.1-2.5,2.1h-1.8h-4.9c-1.3,0-2.4-0.8-2.4-2.1V41h11.6v2.7V44.9z"/>
		</g>
	</g>
	<g>
		<g>
			<polygon fill="#FCE06B" points="24.6,24 24.6,25.9 24.6,42 13,42 13,24 			"/>
		</g>
	</g>
	<g>
		<g>
			<g>
				<path fill="#5083B5" d="M38,39c-2.8,0-5-2.2-5-5s2.2-5,5-5s5,2.2,5,5S40.8,39,38,39z M38,30.5c-1.9,0-3.5,1.6-3.5,3.5
					s1.6,3.5,3.5,3.5s3.5-1.6,3.5-3.5S39.9,30.5,38,30.5z"/>
			</g>
		</g>
	</g>
	<g>
		<g>
			<circle fill="#B2D3EA" cx="37.5" cy="33" r="1.5"/>
		</g>
	</g>
	<g>
		<g>
			<circle fill="#B2D3EA" cx="39" cy="35.5" r="1"/>
		</g>
	</g>
</g>
</svg>
